<svg xmlns="http://www.w3.org/2000/svg" xmlns:xlink="http://www.w3.org/1999/xlink" viewBox="0 0 500 500"><defs><style>.cls-1{fill:none;}.cls-2{fill:#05463d;}.cls-3{clip-path:url(#clip-path);}.cls-4{fill:#fff;}</style><clipPath id="clip-path"><rect class="cls-1" x="104.37" y="142.88" width="291.27" height="214.23"/></clipPath></defs><g id="Layer_2" data-name="Layer 2"><g id="Layer_1-2" data-name="Layer 1"><rect class="cls-2" width="500" height="500"/><g class="cls-3"><path class="cls-4" d="M289.8,247v-1.83l-.09-6.6a.49.49,0,0,1,.48-.51c1.29,0,2.55.2,3.83.2h3.6a.49.49,0,0,1,.49.5v8.36a.45.45,0,0,0,.45.45h7.27a.51.51,0,0,1,.5.5v6.46h0a.5.5,0,0,1-.5.49h-7.71v1.57c0,2,0,4,0,6a4.71,4.71,0,0,0,0,.92,3.84,3.84,0,0,0,4.25,3.36h0a30.6,30.6,0,0,0,3.95-.44h0a.53.53,0,0,1,.6.46h0c.22,1.92.45,3.81.6,5.7a.82.82,0,0,1-.6.83,22.68,22.68,0,0,1-10.26.6,9.91,9.91,0,0,1-7.69-8.69c-.28-2.6-.2-5.27-.23-7.87,0-1,0-2.43,0-2.43L284,255a.61.61,0,0,1-.6-.59,22.23,22.23,0,0,0-1.53-6.22.58.58,0,0,1,0-.18.57.57,0,0,1,.53-.6h0c1.37,0,4,0,4.6-.07s2,0,2.54,0h0a.26.26,0,0,0,.28-.24Zm51.53,23.57c0-4,.29-8,.12-12-.08-2,0-4-.2-6a17.69,17.69,0,0,0-.69-3.37c-.37-1.09-.91-1.92-.49-2.61a13.4,13.4,0,0,1,8.19.11,29.69,29.69,0,0,1,.85,3.07,9.81,9.81,0,0,1,3.54-2.71h0a11.07,11.07,0,0,1,14.76,5.2h0a17.62,17.62,0,0,1-.41,16.3,10.19,10.19,0,0,1-10.08,5.7,8,8,0,0,1-6.73-3.17v9.38a15.18,15.18,0,0,0-8.87,2Zm9.26-10.22a10,10,0,0,0,.15,1.55,5.37,5.37,0,0,0,2.74,4.26,4,4,0,0,0,5.06-1.56,8.11,8.11,0,0,0,.58-7.31,4,4,0,0,0-3.84-2.77c-3.42-.07-4.73,2.9-4.69,5.82ZM159,258.44v3.89c0,1.86.53,3.33,1.66,3.29a1.38,1.38,0,0,0,.49-.1,2.21,2.21,0,0,1,.35-.16c.16,0,.2.2.26.33l.24.52c.34.7.7,1.37,1.08,2,.25.44.52.87.8,1.3l.52.85a1.48,1.48,0,0,1,.31,1.2,1.68,1.68,0,0,1-1,.93,16.12,16.12,0,0,1-8,1.49,4.29,4.29,0,0,1-4.45-3.75c-.07,0-.18,0-.21.08-3.44,5.78-13.78,5.33-17.55-1.67a18,18,0,0,1-.67-16.31,10.9,10.9,0,0,1,14.38-5.48,9.16,9.16,0,0,1,3,2.21V232.89a.46.46,0,0,1,.45-.46h7.92a.46.46,0,0,1,.45.46h0Zm-9.93,5.16a9.2,9.2,0,0,0,.34-6.69,4.25,4.25,0,0,0-8.19.24,11.07,11.07,0,0,0,.65,6.77,3.73,3.73,0,0,0,3.9,2,3.49,3.49,0,0,0,3.31-2.3Zm43.1-3.53a14.37,14.37,0,0,1-28.74,0c0-.48,0-.95,0-1.42A13.57,13.57,0,0,1,178,246h0c.4,0,.81,0,1.22,0a13.51,13.51,0,0,1,13,14Zm-9.42.3c-.09-.83-.11-1.4-.22-2a4.73,4.73,0,0,0-9.19-.68,7.5,7.5,0,0,0,.16,5.28,4.66,4.66,0,0,0,8.71-.14h0a17.8,17.8,0,0,0,.54-2.51Zm155-8.52a8,8,0,0,1-4.25,10.48h0a15.61,15.61,0,0,1-11.37.38l-1-.36a4.52,4.52,0,0,0,4.19,4.31,25.92,25.92,0,0,0,6-.12,56.65,56.65,0,0,0,6-1.48c.13,2.05.29,4.16.36,6.28a1.21,1.21,0,0,1-.61.89,22,22,0,0,1-19.18,0,11.51,11.51,0,0,1-6-9.7c-.42-3.92.5-10.66,5.77-14a16.08,16.08,0,0,1,16.49-.6,8,8,0,0,1,3.66,4Zm-10.17,1.7h0a4.62,4.62,0,0,0-1.31-.35,4.45,4.45,0,0,0-4.92,3.94h0a10.42,10.42,0,0,0,5.77.95,2.31,2.31,0,0,0,.46-4.53Zm-73.9-5.72c-.47-.2-1.4-.6-2-.8a16.17,16.17,0,0,0-2.48-.76,9.5,9.5,0,0,0-10.18,3.86,4.45,4.45,0,0,0-4.53-3.87,23.17,23.17,0,0,0-6.53.66,26.12,26.12,0,0,0,.29,4.92,4,4,0,0,0,.22.82c.32.85,1.2.44,1.59,1.27a5.28,5.28,0,0,1,.31,2.19c0,1.57.08,3.12.09,4.71,0,3.83.18,7.66.18,11.5v1a.38.38,0,0,0,.38.38h0c2.65,0,5.13-.06,7.62,0,.52,0,.84,0,1.06,0a.32.32,0,0,0,.33-.32h0c0-1.6,0-8.69,0-11.84a8,8,0,0,1,3.29-6.43,5.82,5.82,0,0,1,6.14-.43,12.11,12.11,0,0,1,1.12.49.48.48,0,0,0,.64-.21h0v0l2.61-6.73a.35.35,0,0,0-.18-.45h0Zm11.19,18a2.13,2.13,0,0,1-.16-.25,1.13,1.13,0,0,0-1-.56h-7.22a1.12,1.12,0,0,0-1.14,1.12h0v.12a8.17,8.17,0,0,0,6.27,7.21,20.61,20.61,0,0,0,11.85,0,10.71,10.71,0,0,0,4.86-3,7.53,7.53,0,0,0-3.19-12.6,15.1,15.1,0,0,0-2.5-.57c-1.94-.28-3.9-.42-5.83-.78a2.44,2.44,0,0,1-1.59-1.2c-.17-.36.28-1.27.72-1.59a4.14,4.14,0,0,1,5.27,1,1.13,1.13,0,0,0,.74.45c2.53,0,5.06,0,7.76,0,0-.6,0-1-.08-1.4a8.09,8.09,0,0,0-5.28-6.42,16.42,16.42,0,0,0-13.23,0,9,9,0,0,0-4.12,3.37,7.05,7.05,0,0,0,1.41,9.87,6.86,6.86,0,0,0,1.93,1,29.76,29.76,0,0,0,4.87,1.16c1.44.28,2.92.37,4.33.77A2,2,0,0,1,270.8,265a2.35,2.35,0,0,1-.91,1.78,3.59,3.59,0,0,1-5-.95Zm-53.37,8.37A14.67,14.67,0,0,1,197,259.43q0-.44,0-.87a13.53,13.53,0,0,1,14.47-12.51q.6,0,1.2,0a13.53,13.53,0,0,1,13,14h0a14.34,14.34,0,0,1-14.17,14.12Zm4.7-14.08c0-.4,0-.81-.07-1.22a4.8,4.8,0,0,0-4.53-4.5,4.73,4.73,0,0,0-5,4.13,10.68,10.68,0,0,0,0,3,4.81,4.81,0,0,0,4.77,4.38,5,5,0,0,0,4.73-4.48c.07-.45.07-.9.1-1.36Zm177.89,90.24V350a7.11,7.11,0,0,1-7,7.13H373.38l-17.91,0-35.81,0L248,357l-71.63-.07-35.82,0H111.76l-.35,0a5.62,5.62,0,0,1-.7-.1,6.87,6.87,0,0,1-5.5-5.74,5.36,5.36,0,0,1-.06-.7v-1l0-2.23c-.4-23.9-.72-47.84-.73-71.79,0-12,0-23.94.24-35.95.12-6,.29-12,.6-18.06.16-3,.35-6.06.65-9.15.15-1.55.33-3.1.6-4.73.14-.83.29-1.66.54-2.61a13.88,13.88,0,0,1,.55-1.65,8.41,8.41,0,0,1,.65-1.22c.09-.13.19-.28.29-.4A4.88,4.88,0,0,1,109,201a3.89,3.89,0,0,1,.74-.6,4.47,4.47,0,0,1,.71-.4c.48-.2,1-.41,1.47-.57l1.13-.36c.76-.26,1.47-.47,2.2-.7l4.32-1.31,8.59-2.55,17.13-5.14c5.69-1.73,11.37-3.49,17-5.33,1.39-.48,2.8-.93,4.19-1.42l2.08-.71,2-.75c2.72-1,5.48-2.09,8.19-3.22a309.33,309.33,0,0,0,31.83-15.2q7.74-4.22,15.24-8.88t14.74-9.68l1-.67a3.63,3.63,0,0,1,5,.9l1.31,1.86a3.63,3.63,0,0,1-.87,5.05L246,152q-7.42,5.25-15.15,10.06t-15.72,9.14a318.8,318.8,0,0,1-32.92,15.4c-2.81,1.14-5.61,2.21-8.49,3.26l-2.18.78-2.16.73c-1.44.5-2.88,1-4.31,1.41-5.75,1.84-11.49,3.57-17.23,5.27l-17.22,5-8.59,2.49-4.24,1.27c-.7.21-1.42.42-2.08.64l-.36.12c-.09.38-.18.82-.25,1.26-.23,1.32-.4,2.74-.55,4.16-.29,2.86-.5,5.79-.67,8.74-.35,5.89-.55,11.83-.71,17.77-.31,11.9-.42,23.83-.46,35.77,0,23.87.27,47.76.64,71.66l0,1.62h27.2l35.82,0,71.63-.06,71.63-.09,35.82,0,17.91,0h12.06c1.76-23.06,1.27-46.46.91-69.88-.42-23.87-.89-47.78-1.07-71.73l0-2.3s-127.23-.58-133.09-.23l-1.66-.05a2.69,2.69,0,0,1-2.59-2.7v-3a2.68,2.68,0,0,1,2.59-2.69l1.66-.05c5.46-.72,133.62-.77,134.22-.23h.81l.37,0a4.53,4.53,0,0,1,.74.09,7.2,7.2,0,0,1,5.84,6,6,6,0,0,1,.08.74v2.19l0,2.23c.18,23.83.67,47.71,1.09,71.62.18,12,.32,23.9.23,35.91s-.47,24.06-1.47,36.14ZM113.42,350v0ZM387,348.31h0l0,0s.08,0,0,0ZM210.28,314.13a6,6,0,0,0-.09-2.45l-1.26.37c-9.16,2.86-16.5-2.06-17.06-11.61a19.28,19.28,0,0,1,.87-6.83,12.55,12.55,0,0,1,11-8.69,31.36,31.36,0,0,1,15,1.92c.76.26.7.78.7,1.36v16.1c0,3.18.1,6.36-.11,9.51a12.8,12.8,0,0,1-12.6,13h0c-.41,0-.82,0-1.24,0a27,27,0,0,1-11.2-2.6,1.09,1.09,0,0,1-.77-1.33l0-.09c.36-1.94.63-3.91.92-5.7l8.21,1.89a3.51,3.51,0,0,0,.72.07,6,6,0,0,0,6.86-4.87ZM210.19,303v-.08c-.05-1.51,0-3,0-4.51v-3.29c0-2.37,0-2.37-2.42-2.63a5.21,5.21,0,0,0-6.23,3.94h0a4.88,4.88,0,0,0-.12.75,10.92,10.92,0,0,0-.14,2.06,4.9,4.9,0,0,0,5.88,5.31,19.94,19.94,0,0,0,2.15-.43,1,1,0,0,0,.9-1.13Zm45-17a34.83,34.83,0,0,0,0,3.54c0,.28.28.78.46.79,1.78.17,1.84,1.39,1.84,2.74v18.13a.92.92,0,0,0,.91.91h7.68a.91.91,0,0,0,.91-.91h0v-.6c0-4.64,0-9.27,0-13.91v-.43a4.33,4.33,0,0,1,4.5-4.13c2.42,0,3.88,1.76,3.88,4.64v14.44a.9.9,0,0,0,.91.9h7.6c1,0,1-.5,1-1.13,0-5.32.05-10.28,0-15.61a15.56,15.56,0,0,0-.79-4.53c-2.37-7.21-11.78-7.6-15.69-4.07-.6.53-1.09,1.16-1.73,1.85-.23-2.35-1.82-3.18-3.67-3.68a14.91,14.91,0,0,0-7.12.15,1.23,1.23,0,0,0-.67.91Zm-29.37,23.38a8.42,8.42,0,0,1,5.77-14,13,13,0,0,1,8.5,1.25c.51-3.11-.76-4.67-4-4.93A17.66,17.66,0,0,0,227,293c-.37-2.14-.73-4.12-1-6.12,0-.21.35-.63.62-.72a25.47,25.47,0,0,1,17-.28,8.35,8.35,0,0,1,5.78,7.74c.18,2.83.1,5.69.13,8.53,0,.74,0,1.47,0,2.2.08,2,.28,2.25,2.32,2.8,0,1.49,0,3,0,4.56a.84.84,0,0,1-.56.62,29.12,29.12,0,0,1-5.44.18,4.25,4.25,0,0,1-3.66-3.82,10.86,10.86,0,0,1-15.27,1.68h0a9.27,9.27,0,0,1-1.08-1Zm7-5.84a2.51,2.51,0,0,0,2.74,2.25h0l.1,0a4.38,4.38,0,0,0,4.34-2.74,1.34,1.34,0,0,0-.29-1.2,6.53,6.53,0,0,0-4.53-1,2.56,2.56,0,0,0-2.36,2.75Zm-96-5a14.3,14.3,0,1,1,14.28,14.3,14.29,14.29,0,0,1-14.28-14.3Zm9.84,2.5a4.4,4.4,0,0,0,3.92,3.34,4.29,4.29,0,0,0,4.58-2.55c.48-1,.61-1.12.7-4.28a4.71,4.71,0,0,0-4.81-4.62h0a4.64,4.64,0,0,0-4.67,4.39,10.82,10.82,0,0,0,.28,3.72Zm160.88,2a13.57,13.57,0,0,0,11.71,9.62,14,14,0,0,0,14.67-7.42A22,22,0,0,0,335,302a.78.78,0,0,0,0-.16.6.6,0,0,0-.6-.6c-2.78,0-5.29,0-7.8,0a1.11,1.11,0,0,0-.76.59,4.57,4.57,0,0,1-6,2.49,4.67,4.67,0,0,1-1.32-.83,6.59,6.59,0,0,1-.83-8.83c.08-.08.15-.17.24-.25a5.17,5.17,0,0,1,7.31.06h0A2.53,2.53,0,0,0,328,295.8c2.07-.06,4.15,0,6.32,0h.1a.6.6,0,0,0,.51-.68h0a11.7,11.7,0,0,0-5.21-8.22,16.41,16.41,0,0,0-17.42.64,14.24,14.24,0,0,0-4.71,15.57Zm31.1-12.37a7.43,7.43,0,0,0,4.32,9.58h0a30.78,30.78,0,0,0,4.46,1.17c1.51.32,3.07.42,4.55.83a2,2,0,0,1,1.18,1.43,2.19,2.19,0,0,1-.8,1.7,3.81,3.81,0,0,1-.85.44,3.62,3.62,0,0,1-4.65-2.14h-9.07c0,.5,0,.94.09,1.38a8.1,8.1,0,0,0,6.61,7.11,21.61,21.61,0,0,0,10.39.19,12.84,12.84,0,0,0,5.29-2.65,7.62,7.62,0,0,0-2.54-13.13,59.39,59.39,0,0,0-6.33-1.22,19.5,19.5,0,0,1-2.74-.53,1.4,1.4,0,0,1-1-1.72,1.42,1.42,0,0,1,.58-.8c1.41-1.08,4.61-1,5.46.77.11.22.39.51.59.51,2.59,0,5.17,0,7.81,0a7,7,0,0,0-3.1-6.42,13.28,13.28,0,0,0-7.29-2.48,15.17,15.17,0,0,0-10.23,2.44A7.43,7.43,0,0,0,338.64,290.71ZM168.36,311.26h0a.89.89,0,0,0,.89.89h7.57a.88.88,0,0,0,.88-.89h0v-.47c0-4,0-8,0-12a5.73,5.73,0,0,1,5.23-6.17,6,6,0,0,1,1.2,0,23.83,23.83,0,0,1,4.18.93c.39-1.56.8-3.26,1.22-5,.67-2.75.4-3.16-2.45-3.79H187a8.6,8.6,0,0,0-9.62,3.76,4.31,4.31,0,0,0-3.4-3.44,15.27,15.27,0,0,0-7.36.07.83.83,0,0,0-.61.72c-.06,1.49,0,3,0,4.43,2.09.49,2.25.68,2.35,2.74,0,.52,0,1,0,1.58v16.53Zm125.35-25.52a2.68,2.68,0,0,0-2.67,2.67v21.08a2.67,2.67,0,0,0,2.67,2.67h3.92a2.68,2.68,0,0,0,2.68-2.67h0V288.42a2.68,2.68,0,0,0-2.68-2.68h-3.92Z"/></g></g></g></svg>