<svg xmlns="http://www.w3.org/2000/svg" xmlns:xlink="http://www.w3.org/1999/xlink" viewBox="0 0 500 500"><defs><style>.cls-1,.cls-12,.cls-14,.cls-16,.cls-17,.cls-18,.cls-19,.cls-21,.cls-22,.cls-23,.cls-24,.cls-25,.cls-26{fill:none;}.cls-2{fill:#f9f7ee;}.cls-3{clip-path:url(#clip-path);}.cls-4{fill:#423a2d;}.cls-5{fill:#7fc241;}.cls-6{fill:#41973a;}.cls-7{fill:#47a13e;}.cls-8{fill:#f3762f;}.cls-9{clip-path:url(#clip-path-2);}.cls-10{clip-path:url(#clip-path-3);}.cls-11{fill:#231f20;}.cls-12{stroke:#b1b3b5;stroke-width:0.46px;}.cls-12,.cls-22,.cls-24,.cls-26{stroke-linecap:round;}.cls-12,.cls-14,.cls-16,.cls-17,.cls-21,.cls-22,.cls-24,.cls-25,.cls-26{stroke-linejoin:round;}.cls-13{fill:#fefefe;}.cls-14,.cls-16,.cls-17,.cls-18,.cls-19,.cls-21,.cls-22,.cls-23,.cls-24,.cls-26{stroke:#231f20;}.cls-14{stroke-width:1.57px;}.cls-15{fill:#88765a;}.cls-16{stroke-width:1.84px;}.cls-17{stroke-width:2.5px;}.cls-18,.cls-19,.cls-23{stroke-miterlimit:50;}.cls-18{stroke-width:0.94px;}.cls-19{stroke-width:2.54px;}.cls-20{fill:#cada2a;}.cls-21{stroke-width:1.91px;}.cls-22{stroke-width:1.88px;}.cls-23{stroke-width:1.73px;}.cls-24,.cls-25{stroke-width:0.75px;}.cls-25{stroke:#88765a;}.cls-26{stroke-width:1.25px;}</style><clipPath id="clip-path"><rect class="cls-1" x="361.31" y="204" width="39.02" height="37.47"/></clipPath><clipPath id="clip-path-2"><rect class="cls-1" x="426.9" y="281.76" width="12.22" height="10.93"/></clipPath><clipPath id="clip-path-3"><path class="cls-1" d="M211.07,236.16v56H200.74l-13.37-32h-.15v32H176.14v-56h10.32l13.37,32H200v-32Zm39.49,0v41.16c0,8.81-4.71,15.64-16.1,15.64s-16.1-6.83-16.1-15.64V236.16H230.2V276.4c0,4,2,5.48,4.26,5.48s4.25-1.53,4.25-5.48V236.16Zm32,0v10.48h-7.75V292.2H263V246.64h-7.75V236.16Zm60.44,0v10.48H335.3V292.2H323.46V246.64h-7.75V236.16Zm57.33,28.25h1.3c4.63,0,7.29-3.19,7.29-8.88s-2.66-8.89-7.29-8.89h-1.3Zm2.29-28.25c12.91,0,18.45,7.22,18.45,19.37,0,13-7.37,19.36-18.91,19.36h-1.83V292.2H388.53v-56Zm-44.38,28c0,14.87,3.06,18.73,6.68,18.73s6.67-3.86,6.67-18.73S368.57,245.4,365,245.4,358.28,249.26,358.28,264.13Zm14.36-28.08,10.85,10.85v34.46l-10.85,10.86H357.28l-10.86-10.86V246.9l10.86-10.85ZM284.73,251.5c0-9.26,6.15-16.1,15.56-16.1a23.2,23.2,0,0,1,9.65,2.28v11.46a16.37,16.37,0,0,0-7.59-2.65c-2.81,0-5.17,1.06-5.17,4.78,0,6.84,16.33,9.57,16.33,25.13,0,10.86-7.29,16.56-17.77,16.56A16.81,16.81,0,0,1,286,290.3V278.53a11.29,11.29,0,0,0,7.67,3.34c4,0,7.06-2.58,7.06-5.47,0-8.35-16-11.38-16-24.9Z"/></clipPath></defs><g id="Layer_2" data-name="Layer 2"><g id="Layer_1-2" data-name="Layer 1"><rect class="cls-2" width="500" height="500"/><g class="cls-3"><path class="cls-4" d="M361.31,238.71c.45.14,3.28-3.79,3.47-4,.6-.67,1.2-1.33,1.82-2a2.37,2.37,0,0,0,.82-2.06,7.58,7.58,0,0,1,.29-2.49,19.5,19.5,0,0,1,2-5.41c.37-.62.58-1.32.93-1.95a47.07,47.07,0,0,1,6.88-10.12c.74-.78,1.63-1.42,2.42-2.15,2.17-2,4.93-2.71,7.64-3.48,1.44-.41,3-.49,4.43-.83a19.56,19.56,0,0,1,6.11.06,8.71,8.71,0,0,1,1.58.33.87.87,0,0,1,.67.95,4.51,4.51,0,0,1-.07.53c-.34,1.59-.67,3.18-1,4.77a17.61,17.61,0,0,1-2.12,5.15,40.69,40.69,0,0,1-6.84,9,25.76,25.76,0,0,1-5.66,4.15,56.57,56.57,0,0,1-7.16,3.41,17.85,17.85,0,0,1-7.23,1.18c-.47,0-.95,0-1.54,0-1.2,1.34-5.14,6.34-6.33,7.68m34.52-35.21a7,7,0,0,0-.94-.1,30.2,30.2,0,0,0-11.22,2.33c-3.27,1.43-5.62,3.84-7.88,6.43a1.89,1.89,0,0,0-.19.3c-.86,1.38-1.73,2.74-2.59,4.12a32.07,32.07,0,0,0-3.44,8.3,5,5,0,0,0,0,1.05,16.69,16.69,0,0,0,2.55-2.23,1.29,1.29,0,0,0,.27-.45c.42-1.25.84-2.5,1.24-3.75a15.15,15.15,0,0,1,2.56-4.93.72.72,0,0,1,.63-.18.77.77,0,0,1,.46.49,2.28,2.28,0,0,1-.08,1c-.46,1.3-1,2.58-1.44,3.88-.17.49-.55,1-.23,1.69.87-.81,1.77-1.49,2.55-2.32a1.86,1.86,0,0,0,.49-1.32,25.68,25.68,0,0,1,.8-5.15,7,7,0,0,1,.89-2.15,9,9,0,0,1,1.45-1.57c.21-.2.65,0,.75.25a2.48,2.48,0,0,1-.05,1.76c-.5,1.41-1,2.83-1.48,4.26-.08.24-.28.52.16.8a15.68,15.68,0,0,0,2.19-2.82,32.14,32.14,0,0,1,5.52-6.4,4.38,4.38,0,0,1,2-1.12,1.2,1.2,0,0,1,1.47.71,1.11,1.11,0,0,1-.18,1.19c-.49.6-1,1.17-1.59,1.72l-6.13,6.11c-.2.2-.47.39-.3.79a13.09,13.09,0,0,0,4.6-.62,1.43,1.43,0,0,1,.36-.06.87.87,0,0,1,.93,1.16,1.39,1.39,0,0,1-.82.9,4.73,4.73,0,0,1-1,.29c-1.78.28-3.56.61-5.35.78a3.14,3.14,0,0,0-2.16,1.1c-.93,1-1.94,1.94-2.92,2.92-.06.07,0,.22-.06.34.85.42,1.89.16,2.73.63-.36,1.27-.72,1.65-1.82,1.65a17.35,17.35,0,0,1-2.69-.24,2.09,2.09,0,0,0-1.82.52c-1,.85-2,1.67-3.06,2.52a2.73,2.73,0,0,0-.42.59,7.59,7.59,0,0,0,4.33-.57c1.39-.59,2.77-1.17,4.17-1.71a16.71,16.71,0,0,0,4.84-2.75,18.48,18.48,0,0,1,2-1.48,12,12,0,0,0,2.83-2.49q1.85-2.24,3.55-4.56a9.86,9.86,0,0,0,1.66-3.18c.37-1.33.83-2.64,1.12-4s.5-2.93.75-4.48"/></g><path class="cls-5" d="M396.89,206.25c-.25,1.56-.43,3-.75,4.49s-.75,2.65-1.12,4a9.88,9.88,0,0,1-1.67,3.18c-1.13,1.56-2.32,3.08-3.54,4.56A11.79,11.79,0,0,1,387,225a18.69,18.69,0,0,0-2,1.49,16.76,16.76,0,0,1-4.83,2.74c-1.4.54-2.79,1.12-4.17,1.71a7.43,7.43,0,0,1-4.33.57,3.34,3.34,0,0,1,.41-.59c1-.85,2.05-1.66,3.06-2.52a2.1,2.1,0,0,1,1.83-.52,17.35,17.35,0,0,0,2.69.24c1.09,0,1.46-.38,1.81-1.64-.84-.48-1.87-.21-2.73-.64,0-.11,0-.26.07-.33,1-1,2-1.91,2.92-2.93a3,3,0,0,1,2.15-1.09c1.8-.17,3.57-.51,5.36-.79a4.62,4.62,0,0,0,1-.28,1.38,1.38,0,0,0,.82-.91.87.87,0,0,0-.93-1.16,1.36,1.36,0,0,0-.35.07,12.85,12.85,0,0,1-4.6.61c-.18-.39.1-.59.3-.78,2-2,4.09-4.08,6.13-6.12a21.46,21.46,0,0,0,1.58-1.72,1.13,1.13,0,0,0,.19-1.19,1.22,1.22,0,0,0-1.48-.7,4.34,4.34,0,0,0-2,1.12,31.81,31.81,0,0,0-5.51,6.4,16.59,16.59,0,0,1-2.2,2.82c-.43-.28-.23-.57-.15-.81.48-1.42,1-2.84,1.48-4.26a2.59,2.59,0,0,0,.05-1.76c-.1-.27-.55-.44-.75-.24a8.89,8.89,0,0,0-1.45,1.56,6.75,6.75,0,0,0-.89,2.15,24.33,24.33,0,0,0-.8,5.15,1.87,1.87,0,0,1-.49,1.32c-.78.83-1.68,1.51-2.56,2.32-.32-.73.06-1.2.23-1.68.45-1.3,1-2.58,1.44-3.88a2.16,2.16,0,0,0,.08-1,.64.64,0,0,0-1.09-.32,15,15,0,0,0-2.55,4.93c-.4,1.25-.82,2.5-1.24,3.75a1.21,1.21,0,0,1-.28.46,16.75,16.75,0,0,1-2.55,2.23,5.71,5.71,0,0,1,0-1.06,32,32,0,0,1,3.43-8.29c.86-1.38,1.73-2.75,2.59-4.12a3.13,3.13,0,0,1,.2-.3c2.26-2.59,4.61-5,7.87-6.44A30.21,30.21,0,0,1,396,206.15c.28,0,.57.07.94.1"/><path class="cls-6" d="M394.21,207.75a20.94,20.94,0,0,1-1.37,4.44c-.15.44-.33.87-.5,1.29-.08.21-.18.42-.28.62s-.3.38-.19.36a.82.82,0,0,0-.21,1.38.12.12,0,0,0,0,0,.93.93,0,0,0,.88.24c1-.36,1.37-1.85,1.72-2.74a22.4,22.4,0,0,0,1.71-5.64c.13-1.16-1.68-1.14-1.81,0"/><path class="cls-6" d="M387.32,221.42a40.06,40.06,0,0,1-4.63,2.93c-1.06.48-.14,2,.91,1.57a40.65,40.65,0,0,0,4.63-2.94c1-.62.08-2.18-.91-1.56"/><path class="cls-6" d="M378.39,228.29a.94.94,0,0,0-1.24-.32,9.09,9.09,0,0,1-2.16.7.91.91,0,0,0-.63,1.11.93.93,0,0,0,1.11.63,11.31,11.31,0,0,0,2.59-.88.92.92,0,0,0,.33-1.24"/><path class="cls-7" d="M387.55,208.08h-.23a.91.91,0,0,0,0,1.81h.23a.91.91,0,0,0,0-1.81"/><path class="cls-8" d="M407.38,288.72a2,2,0,1,1-2,2,2,2,0,0,1,2-2"/><path class="cls-8" d="M416.46,285.05a1.65,1.65,0,0,0-1.08-.49c-.86,0-1.48.79-1.48,2.75s.62,2.74,1.48,2.74a1.65,1.65,0,0,0,1.08-.49v3a4.11,4.11,0,0,1-1.8.32c-2.77,0-3.94-2.58-3.94-5.55s1.17-5.56,3.94-5.56a4.09,4.09,0,0,1,1.8.32Z"/><path class="cls-8" d="M425.43,287.32c0,3-1.18,5.55-3.95,5.55s-3.94-2.58-3.94-5.55,1.18-5.56,3.94-5.56,3.95,2.58,3.95,5.56m-3.05,0c0-2.5-.32-3-.9-3s-.9.53-.9,3,.32,3,.9,3,.9-.54.9-3"/><g class="cls-9"><path class="cls-8" d="M430,281.94v1.27H430a2.26,2.26,0,0,1,2.17-1.45,2.66,2.66,0,0,1,2.3,1.36,2.45,2.45,0,0,1,2.26-1.36c1.71,0,2.35,1,2.35,3.23v7.7H436v-6.78c0-.88-.25-1.29-.73-1.29a.67.67,0,0,0-.71.71v7.36h-3.05v-6.78c0-.88-.25-1.29-.73-1.29a.67.67,0,0,0-.72.71v7.36H426.9V281.94Z"/></g><path class="cls-8" d="M211.07,236.16v56H200.74l-13.37-32h-.15v32H176.14v-56h10.32l13.37,32H200v-32Zm39.49,0v41.16c0,8.81-4.71,15.64-16.1,15.64s-16.1-6.83-16.1-15.64V236.16H230.2V276.4c0,4,2,5.48,4.26,5.48s4.25-1.53,4.25-5.48V236.16Zm32,0v10.48h-7.75V292.2H263V246.64h-7.75V236.16Zm60.44,0v10.48H335.3V292.2H323.46V246.64h-7.75V236.16Zm57.33,28.25h1.3c4.63,0,7.29-3.19,7.29-8.88s-2.66-8.89-7.29-8.89h-1.3Zm2.29-28.25c12.91,0,18.45,7.22,18.45,19.37,0,13-7.37,19.36-18.91,19.36h-1.83V292.2H388.53v-56Zm-44.38,28c0,14.87,3.06,18.73,6.68,18.73s6.67-3.86,6.67-18.73S368.57,245.4,365,245.4,358.28,249.26,358.28,264.13Zm14.36-28.08,10.85,10.85v34.46l-10.85,10.86H357.28l-10.86-10.86V246.9l10.86-10.85ZM284.73,251.5c0-9.26,6.15-16.1,15.56-16.1a23.2,23.2,0,0,1,9.65,2.28v11.46a16.37,16.37,0,0,0-7.59-2.65c-2.81,0-5.17,1.06-5.17,4.78,0,6.84,16.33,9.57,16.33,25.13,0,10.86-7.29,16.56-17.77,16.56A16.81,16.81,0,0,1,286,290.3V278.53a11.29,11.29,0,0,0,7.67,3.34c4,0,7.06-2.58,7.06-5.47,0-8.35-16-11.38-16-24.9Z"/><g class="cls-10"><path class="cls-8" d="M171.68,300.24h255V229.76h-255Z"/></g><path class="cls-11" d="M140.79,290.87l.49-1.31h.81v2.16h-.56v-1.47h0l-.51,1.47h-.43l-.51-1.47h0v1.47h-.55v-2.16h.8ZM139.1,290h-.6v1.71h-.59V290h-.61v-.45h1.8Z"/><path class="cls-12" d="M130,289.36h1.11c0,.11-5.21.27-5.21.3h9.4c0,.25-15.95.06-15.95.31,0,0,18.24-.36,18.24,0,0,.62-23.37,0-23.37.31,0,0,24.68-.63,24.68,0,0,.9-30.09.32-30.09.32h0s34.17-.17,34.17,0c0,0-39.87-.42-39.87.31,0,.3,41.48,0,41.48,0,0,1.31-46.41-.76-46.41.3,0,0,48.62-.53,48.62,0,0,.09-53.51,0-53.51.32,0,1,56.87,0,56.87,0,0,.41-61.74.31-61.74.31,0,1,65.55-1.9,65.55,0,0,1.71-72.71-.48-72.71.31,0,.3,74.84-.19,74.84,0,0,.66-77.56.32-77.56.32,0,.26,80.95,0,80.95,0,0,.26-87.75-.22-87.75.32,0,0,91.82-1.05,91.82,0,0,2.39-95.77.29-95.77.29,2.75,1.74,96.68,0,96.68,0,0,2.27-103.58-2.56-103.58.31H168.31c0,.24-106.68.09-106.68.3,0,2.24,108.21-1.25,108.21,0,0,0-108.78-.86-108.78.3,0,2.56,112.26-3.19,112.26,0,0,0-110.79.56-109,.3,5.52-.77,110.06,0,110.06,0,0,3.2-109.24.31-109.24.31,0,1.61,105.11-.43,105.11,0,0,1.3-101-.92-101,.31,0,.76,98.1-.15,98.1,0,0,.93-95.62.31-95.62.31,0,.53,93.19-1.11,93.19,0l-93.37.29h88.43s-84.33-1.11-84.33.31h82.49c0,.41-81.93.3-81.93.3,0,1.18,77.81,0,77.81,0,0,2.09-76.84-.3-76.84.31,0,1.7,72.88-1,72.88,0,0,1.32-70.65-1.08-70.65.31,0,.07,67.35,0,67.35,0h0s-64.43-.12-64.43.31h61.25l-57.91.3c0,1.68,56.23-.34,56.23,0s-56.08.31-56.08.31h0s52.68-.57,52.68,0c0,.06-51.19-.3-51.19.32H133.9c0,.07-42,0-42,.31h39.4c0,.31-39.38.31-39.38.31h37.54c0,.89-35.57-.69-35.57.32h31.58s-29.27.14-29.27.3,26.1-.26,26.1,0l-23.19.32c0,.07,19.79-.41,19.79,0l-19.26.3c0,.39,16.48-.17,16.48,0s-12,.3-12,.3c0,.16,9.36-.25,9.36,0s-7.41.12-7.41.31a18.91,18.91,0,0,1,3,0"/><path class="cls-13" d="M155,239.83l-6.69,1.95V231.61h6.83Z"/><path class="cls-14" d="M155,239.83h0l-6.69,1.95h0V231.61h6.83Z"/><path class="cls-15" d="M133.88,285.86s6,2.66,9,3.65a32.45,32.45,0,0,1,7,4s-6.31-1.32-10.63-2-11-1-11-1Z"/><path class="cls-16" d="M133.88,285.86h0s6,2.66,9,3.65a32.45,32.45,0,0,1,7,4h0s-6.31-1.32-10.63-2-11-1-11-1h0Z"/><path class="cls-15" d="M75.64,222.6s-5.54-7.78,5-15.73c6.76-5.08,18.18-7.08,24.44,1.08,5.75,7.5,5.75,12.21,5.68,17.2-.07,4.75-2.37,13.85-2.37,13.85l-3.72,23-7.79,28.77s-9.48,4.74-13.54,1-10.64-7.66-11.59-23c-.92-15,2.62-23.73,8-29.31,3.2-3.31,7.51-8.33,8.3-14.38.77-5.87-1-11.51-4.74-10.83s-7.75,8.28-7.75,8.28"/><path class="cls-17" d="M75.64,222.6h0s-5.54-7.78,5-15.73c6.76-5.08,18.18-7.08,24.44,1.08,5.75,7.5,5.75,12.21,5.68,17.2-.07,4.75-2.37,13.85-2.37,13.85h0l-3.72,23h0l-7.79,28.77h0s-9.48,4.74-13.54,1-10.64-7.66-11.59-23c-.92-15,2.62-23.73,8-29.31,3.2-3.31,7.51-8.33,8.3-14.38.77-5.87-1-11.51-4.74-10.83s-7.75,8.28-7.75,8.28Z"/><path class="cls-15" d="M116.64,207.08a7,7,0,0,1,6.34-.88c3.39,1.35,7.45,6.77,7.45,6.77l8.13-1.36s-1.64-5.6-.81-8.37c1-3.49,5.06-5.93,5.06-5.93a10,10,0,0,1,3.14,6.28c.67,4.4-2.62,8.54-2.62,8.54s4,2.87,4.7,5.92-.34,4.34-.34,4.34,1.22,2.43,5.37,1.83c7.19-1.05,8.85,12.57.21,11.47-5.58.36-10.66,1-12.35,3.68s-6.09,11.51-5.08,17.26,7.79,18.95,2,28.09-9.48,9.14-12.19,10.16-12.52,1.35-17.26,0-15.57-1-14.89-23,15.91-35.2,19.63-38.59,13.2-16.92,13.2-16.92a18.83,18.83,0,0,1-7.45-3.38,6.91,6.91,0,0,1-2.29-5.89"/><path class="cls-17" d="M116.64,207.08h0a7,7,0,0,1,6.34-.88c3.39,1.35,7.45,6.77,7.45,6.77h0l8.13-1.36h0s-1.64-5.6-.81-8.37c1-3.49,5.06-5.93,5.06-5.93h0a10,10,0,0,1,3.14,6.28c.67,4.4-2.62,8.54-2.62,8.54h0s4,2.87,4.7,5.92-.34,4.34-.34,4.34h0s1.22,2.43,5.37,1.83c7.19-1.05,8.85,12.57.21,11.47-5.58.36-10.66,1-12.35,3.68s-6.09,11.51-5.08,17.26,7.79,18.95,2,28.09-9.48,9.14-12.19,10.16-12.52,1.35-17.26,0-15.57-1-14.89-23,15.91-35.2,19.63-38.59,13.2-16.92,13.2-16.92h0a18.83,18.83,0,0,1-7.45-3.38,6.91,6.91,0,0,1-2.29-5.89Z"/><path class="cls-18" d="M151.6,235.13l0,5.81"/><path class="cls-11" d="M156.72,229.91c.06,1.6-.69,2.79-2.28,2.8-1.26,0-3.29-.22-3.42-3.42a4.11,4.11,0,0,0,.46,2.91c-.91-.33-1.53-1.8-1.16-3.6a3.25,3.25,0,0,1,4.27-2.06c1.17.32,2,1.11,2.13,3.37"/><path class="cls-8" d="M128.76,217.28c4.8-1.75,6.89-3.4,13.26-4.45a40.17,40.17,0,0,1,12.51-2.94c1.53,2.68,3.69,7.4,1.77,11.67-3,6.71-11.23.95-12.54-2,.2,2.46,1.23,4.45.09,7.06-1,2.37-4.95,3.64-8.2,2.62-3.05-1-4.24-3.17-5.41-6.81-.62-1.95-1.48-5.14-1.48-5.14"/><path class="cls-19" d="M128.76,217.28c4.8-1.75,6.89-3.4,13.26-4.45a40.17,40.17,0,0,1,12.51-2.94c1.53,2.68,3.69,7.4,1.77,11.67-3,6.71-11.23.95-12.54-2,.2,2.46,1.23,4.45.09,7.06-1,2.37-4.95,3.64-8.2,2.62-3.05-1-4.24-3.17-5.41-6.81C129.62,220.47,128.76,217.28,128.76,217.28Z"/><path class="cls-20" d="M131.21,216.41c-3.13,2.58-5.48,1.8-9.27,2.49-2,.37-4.1,1.43-6.17,1.34-.77,2.27-1,5.56,2.27,5.11-6.06.71-4.12-5.54.11-6.91a41.19,41.19,0,0,1,12.27-1.59"/><path class="cls-21" d="M131.21,216.41c-3.13,2.58-5.48,1.8-9.27,2.49-2,.37-4.1,1.43-6.17,1.34-.77,2.27-1,5.56,2.27,5.11-6.06.71-4.12-5.54.11-6.91a41.19,41.19,0,0,1,12.27-1.59"/><path class="cls-11" d="M149.71,217.86c.27,1.67-.37,3.17-1.42,3.34s-2.11-1.06-2.38-2.74.37-3.17,1.42-3.34,2.11,1.06,2.38,2.74"/><path class="cls-11" d="M138.83,221.19c.27,1.68-.36,3.18-1.41,3.34s-2.12-1.05-2.39-2.73.37-3.18,1.42-3.34,2.12,1.06,2.38,2.73"/><path class="cls-11" d="M142.42,238.28c-.16.32-.64.71-3,0-3.34-1-5.74-4.87-5.58-5.19s3.27,2.53,6.92,3.26c2.46.49,1.86,1.59,1.7,1.91"/><path class="cls-11" d="M140.79,301.84l.49-1.31h.81v2.16h-.56v-1.47h0l-.51,1.47h-.43l-.51-1.47h0v1.47h-.55v-2.16h.8ZM139.1,301h-.6v1.71h-.59V301h-.61v-.45h1.8Z"/><path class="cls-11" d="M154.36,231s-.26,2.74-1.37,3.47c-1.3.84-.94.48-2.71,1.07,0,0,2.7.25,3.76-.62,1.29-1,.32-3.92.32-3.92"/><path class="cls-13" d="M138,238.83c-3.81-2.53-7.74.2-9.06,1.52-1.87,1.86-2.06,5.47-2.47,7.91-.84,5,.59,7.66-.65,12.58-.56,2.28-2.13,5.4-3,7.87a29.54,29.54,0,0,0-1,8.74c.12,2.87,1.24,3.12-.31,5.6-1.37,2.18-4,4-4.93,6.36-1.16,3,2.53,3.73,5.34,3.4a19.17,19.17,0,0,0,6.47-1.91c2.28-1.42,3.18-2.5,5.2-5A19.33,19.33,0,0,0,137,275.86c0-7.07-1.83-8.62-3.22-15.53-2.37-11.76,4.17-21.5,4.17-21.5"/><path class="cls-15" d="M104.71,277.28s15.91-6.77,19.29-.67-1.69,9.47-4.73,12.52a17,17,0,0,0-4.06,6.43s6.77,2,13.2,3.72,5.75,3.39,5.75,3.39-7.45-1-18.28-2.71q-9.87-1.54-19.63-3.72s-.34-3.73,3.39-4.07a31.29,31.29,0,0,0,7.78-2"/><path class="cls-22" d="M104.71,277.28h0s15.91-6.77,19.29-.67-1.69,9.47-4.73,12.52a17,17,0,0,0-4.06,6.43h0s6.77,2,13.2,3.72,5.75,3.39,5.75,3.39h0s-7.45-1-18.28-2.71q-9.87-1.54-19.63-3.72h0s-.34-3.73,3.39-4.07a31.29,31.29,0,0,0,7.78-2h0"/><path class="cls-15" d="M134.2,265.56s5.91,9.47,14.42,6.84c18.21-5.63,16.92-22.48,16.92-22.48s-5.54-5.36-18.63,2-12.71,13.64-12.71,13.64"/><path class="cls-23" d="M134.2,265.56h0s5.91,9.47,14.42,6.84c18.21-5.63,16.92-22.48,16.92-22.48h0s-5.54-5.36-18.63,2-12.71,13.64-12.71,13.64Z"/><path class="cls-15" d="M133.27,265.47s-3-9.86,4.85-15.34c15.92-11.09,28.47-1.95,28.47-1.95s1.93,8.16-12.83,14.8-20.49,2.49-20.49,2.49"/><path class="cls-23" d="M133.27,265.47h0s-3-9.86,4.85-15.34c15.92-11.09,28.47-1.95,28.47-1.95h0s1.93,8.16-12.83,14.8S133.27,265.47,133.27,265.47Z"/><path class="cls-24" d="M134.79,257.24c-.66-3,4.21-4.27,6.16-5.55,2.4-1.57,3.9-3.8,6.67-4.83s5.17-1,8.33-.7c2.3.21,5.89-.12,7.88,1.06-1.18.51-3.16-.08-4.51-.17a24.16,24.16,0,0,0-5.38.48c-2.21.34-4.24.27-6.15,1.41-1.7,1-3.84,1.57-5.36,2.75-1,.79-1.65,1.62-2.79,2.44-1.52,1.11-2.5,1.56-3.43,3.08-.75,1.23-1.74,1.88-2.46,3s-.21,2-.7,3c1.53-.25,2.11-2,3.07-3.06a41.37,41.37,0,0,1,3.67-3.1c2.62-2.23,6.81-2.16,9.24-4.54,1.15-1.14,1.15-1.93,2.87-2.51a29.24,29.24,0,0,1,4.72-1c2.63-.37,5.56.29,8.22.5-1.47.49-2.75,1.09-4.33,1.6-1.88.6-4.12.76-5.83,1.47a36.57,36.57,0,0,0-7.85,4,24.9,24.9,0,0,1-6.6,3.73c-1.8.68-3.35,1.24-4.56,2.79,5.7-1.15,11.61-3.73,16.81-6.19,2.24-1.06,4.38-2.22,6.6-3.33,1.57-.79,3.51-.82,5-1.49-1.57.79-2.33,2.44-4,3.32a32.55,32.55,0,0,1-4.39,1.69c-1.32.48-2,1.52-3.05,2.31s-2.49,1.08-3.88,1.77a11.86,11.86,0,0,1-3.28.92c-1.58.27-2.91.61-4.53,1a29.57,29.57,0,0,1-7.59.95"/><path class="cls-24" d="M138.43,268.61c2.36,1.39,6,.19,8.51-.43a32.06,32.06,0,0,0,6-2.1c2.06-1,4.55-1.6,6.53-2.84a16.18,16.18,0,0,0,2.2-1.53c.7-.82.66-2,1.52-2.87-.13,2.25-2.28,3.7-3.77,5.07-2,1.87-3.4,3.22-5.9,4.29a35.43,35.43,0,0,1-7.34,2.23c-1.39.25-4.13,1-5.36.35,3.1.38,6.72,1.1,9.55.11,1.77-.62,6.78-2,7.12-3.84"/><path class="cls-15" d="M144.16,268.78c-.66,0-3.4-.11-4.7-1.9a12.31,12.31,0,0,1-1.18-2.17,7.18,7.18,0,0,0-.61-1.19,4.6,4.6,0,0,0-1.9-.07c-.67.15-1-.76-.29-.91,1.44-.32,2.68-.59,3.28.23a8.05,8.05,0,0,1,.75,1.42,10.22,10.22,0,0,0,1.05,1.94,3,3,0,0,0,1.48,1,8.41,8.41,0,0,1-1-1.24,7.56,7.56,0,0,1-1.37-3.32l-.13-1.58,1.23,1a17,17,0,0,0,4.24,2.65l.22.07a14,14,0,0,1-1.9-1.71c-.85-1-1.18-1.11-1.19-1.11a.51.51,0,0,0,.2,0l-.35-1.24a1,1,0,0,1,.24,0,10.44,10.44,0,0,1,3.51.11,8.85,8.85,0,0,0,1.1.26,4,4,0,0,0-1.65-.66,13.67,13.67,0,0,0-3.78,0l-.52.09-.57-1.25.07-.23a22.59,22.59,0,0,0,.56-2.43,8.65,8.65,0,0,0,0-1.76,1.65,1.65,0,0,0-.47,1,14.67,14.67,0,0,1-.72,3.7c-.41,1.05-2,1.38-4.3,1.55v-1.3c2.82-.21,3-.63,3.06-.71a10.73,10.73,0,0,0,1-3.13,4.39,4.39,0,0,1,1.4-2.81l1.88-.19-.28.84a12.41,12.41,0,0,1,0,3.09,13.44,13.44,0,0,1-.75,2.23,13.46,13.46,0,0,1,3.65-.17,8.14,8.14,0,0,1,4.31,2.44l.34,1.34-1.37-.08a18.29,18.29,0,0,1-3.34-.55,4.89,4.89,0,0,0-1.32-.15l.32.35a19.21,19.21,0,0,0,3.47,2.76l.31.64-.38.84c-.17.09-1.08.15-3.16-.53a12.24,12.24,0,0,1-2.93-1.57,7.18,7.18,0,0,0,.5.85,8.13,8.13,0,0,0,2.44,2.37l.53,1-.84.16h-.14"/><path class="cls-25" d="M144.16,268.78c-.66,0-3.4-.11-4.7-1.9a12.31,12.31,0,0,1-1.18-2.17,7.18,7.18,0,0,0-.61-1.19,4.6,4.6,0,0,0-1.9-.07c-.67.15-1-.76-.29-.91,1.44-.32,2.68-.59,3.28.23a8.05,8.05,0,0,1,.75,1.42,10.22,10.22,0,0,0,1.05,1.94,3,3,0,0,0,1.48,1,8.41,8.41,0,0,1-1-1.24,7.56,7.56,0,0,1-1.37-3.32l-.13-1.58h0l1.23,1a17,17,0,0,0,4.24,2.65l.22.07a14,14,0,0,1-1.9-1.71c-.85-1-1.18-1.11-1.19-1.11a.51.51,0,0,0,.2,0l-.35-1.24a1,1,0,0,1,.24,0,10.44,10.44,0,0,1,3.51.11,8.85,8.85,0,0,0,1.1.26,4,4,0,0,0-1.65-.66,13.67,13.67,0,0,0-3.78,0l-.52.09h0l-.57-1.25h0l.07-.23a22.59,22.59,0,0,0,.56-2.43,8.65,8.65,0,0,0,0-1.76,1.65,1.65,0,0,0-.47,1,14.67,14.67,0,0,1-.72,3.7c-.41,1.05-2,1.38-4.3,1.55v-1.3c2.82-.21,3-.63,3.06-.71a10.73,10.73,0,0,0,1-3.13,4.39,4.39,0,0,1,1.4-2.81l1.88-.19h0l-.28.84a12.41,12.41,0,0,1,0,3.09,13.44,13.44,0,0,1-.75,2.23,13.46,13.46,0,0,1,3.65-.17,8.14,8.14,0,0,1,4.31,2.44l.34,1.34h0l-1.37-.08a18.29,18.29,0,0,1-3.34-.55,4.89,4.89,0,0,0-1.32-.15l.32.35a19.21,19.21,0,0,0,3.47,2.76l.31.64h0l-.38.84c-.17.09-1.08.15-3.16-.53a12.24,12.24,0,0,1-2.93-1.57,7.18,7.18,0,0,0,.5.85,8.13,8.13,0,0,0,2.44,2.37l.53,1h0l-.84.16Z"/><path class="cls-15" d="M122.52,246.88s-.82,7.63-.41,10.51-.93,4.63,1.75,5.25a46.53,46.53,0,0,0,10.2.93c2-.21,4-1.13,4.53-.41s.9,2.17,1.74,3.36c1.22,1.73,4.13,1.62,4.13,1.62a8.47,8.47,0,0,1-2.58-2.58,7.08,7.08,0,0,1-1.23-3,17,17,0,0,0,4.33,2.78c1.85.62,2.57.21,2.57.21a19.43,19.43,0,0,1-3.5-2.89c-1.24-1.44-1.55-1.32-1.55-1.32a9.43,9.43,0,0,1,3.2.09,17,17,0,0,0,3.09.51,5.55,5.55,0,0,0-3.34-2.18,13.18,13.18,0,0,0-3.87,0l-.25-.57a21.94,21.94,0,0,0,.56-2.52,11.59,11.59,0,0,0-.11-3.09,3.15,3.15,0,0,0-1.6,2.15,14,14,0,0,1-.66,3.51c-.31.83-2.27,1-3.61,1.14s-8.34.72-9,.1-.82-1.54-.82-3.71.1-8.34.1-8.34"/><path class="cls-26" d="M122.52,246.88h0s-.82,7.63-.41,10.51-.93,4.63,1.75,5.25a46.53,46.53,0,0,0,10.2.93c2-.21,4-1.13,4.53-.41s.9,2.17,1.74,3.36c1.22,1.73,4.13,1.62,4.13,1.62h0a8.47,8.47,0,0,1-2.58-2.58,7.08,7.08,0,0,1-1.23-3h0a17,17,0,0,0,4.33,2.78c1.85.62,2.57.21,2.57.21h0a19.43,19.43,0,0,1-3.5-2.89c-1.24-1.44-1.55-1.32-1.55-1.32h0a9.43,9.43,0,0,1,3.2.09,17,17,0,0,0,3.09.51h0a5.55,5.55,0,0,0-3.34-2.18,13.18,13.18,0,0,0-3.87,0h0l-.25-.57h0a21.94,21.94,0,0,0,.56-2.52,11.59,11.59,0,0,0-.11-3.09h0a3.15,3.15,0,0,0-1.6,2.15,14,14,0,0,1-.66,3.51c-.31.83-2.27,1-3.61,1.14s-8.34.72-9,.1-.82-1.54-.82-3.71.1-8.34.1-8.34h0"/></g></g></svg>