<svg xmlns="http://www.w3.org/2000/svg" viewBox="0 0 500 500"><defs><style>.cls-1{fill:#6fcee4;}</style></defs><g id="Layer_2" data-name="Layer 2"><g id="Layer_1-2" data-name="Layer 1"><rect class="cls-1" width="500" height="500"/><path d="M113.5,258.64c0-.65-4.27-10.43-5.08-10.43,0-.77-3.09-4.85-2.41-5.52-2.31-2.61-3.67-6.59-5.62-9.54-3.29,2.22-1.34,8.33-2.49,11.23,0,3.17.36,6.54.36,9.8,1.19,1.81,1.06,4.48,1.69,6.42,0,.69.34,2.95.89,3.47.93,4.75,2.48,9,2.75,14,.17,3.17-1.07,7.38-1.43,10.84-.4,3.77-.47,7.81-2.21,11.29-.17,0-2.49,2.06-2.49,2-2.14,1.58-5.17.52-7.37.39-1.35-.08-2.75-.29-3.47-1.09s-1.72-.85-2.89-1.35c0-1-2.49-1.25-2.67-2,0-.55.62-5.91,0-6.51,0-4.32.09-8.53.09-12.83,0-3.54,0-10.78,1.33-14.7,1.67-5,.94-10.39,2.59-15.33.6-1.18.38-7.12,1.78-7.58-.52-2,1.67-6.43,2.16-8.16.41-1.42,1.38-7.33,2.74-7.79,0-2.6,5.09-2.22,6.33-3.48,4.15-1.26,7.18,2.16,10.78,3.49,1.6.59,2.9,3.09,4.16,4.22a22.13,22.13,0,0,1,3.24,4.59,10.48,10.48,0,0,0,1.07,2.11c.84,1.36,1.5,2.68,2.33,4.13.58,1,3.36,5.86,3,6.9-.63,1.58,8.81,20.08,9.42,19.84,1-2-.11-4.72.89-6.78.73-2.13.59-6.27.72-8.57.29-5.45,1.42-10.87,1.42-16.2,1.32-3.31-.31-8.27,1.43-11.32.89-3.56,1.1-7.45,1.66-11.14.23-1.5-1.3-1.67-1.3-2.94,0-1,1.07-2.27,1.07-3.57.76-1.55-.14-2.71,2.32-2.95.83-.08,2.85-.06,3.29-1,1.65-.81,12.76-.06,11.23,4.55,0,.83.35,2.13.35,2.94.6,1.74-1.78,2.3-1.78,4-1.15,2.27-1.09,4.72-2.14,6.86,0,.95-.69,6.5-1.34,7.13,0,2.38-.35,5.14-.35,7.58.8,1.6-.27,5.31-.27,7,0,2.78.27,5.65.27,8.64-.63.32-.65,10.19-.35,11a9.21,9.21,0,0,0-.31,3.9c.24,1.23.37,6.15-.23,7.33-.23,2.32-.84,21.21-2.67,21.21,1.67,2.49-6.34,3.27-8,1.61-1-.34-3-.37-3.93-1,0-1.26-1.53-.5-1-2.13-1-.47-1.32-1.05-2.49-1,0-1.7.79-1.07,0-3a22.35,22.35,0,0,1-1.3-2.85c-1.07-2.18-2-4.4-3-6.6-.66-1.42-1.59-4.28-2.8-5.08,0-1.07-8.8-16.13-9.89-16.13,0-.18.27,0,0,0ZM173.29,286c2-3.89,2.88-8,4-12.12a30,30,0,0,0,1.87-8.65c.44-.44.14-2.44-.27-2.85,0-1.08-.15-.77-.71-1.34,0-.61.62-.45.62-1.06-.87.43-1.53-3.43-1.16-4.55,0-4.25,3.42-2.76,5.35-5.62,1.32-1.31,7.22-.64,9.2,0,1.52.51,2.84.52,4.21,1.38,1,.59,2.29,2.79,3.08,3.05,0,.7-.31,3.66,0,4.21s-3.2,4.77-3.62,6c0,1.54-1.77,3.91-2.21,5.43a115.36,115.36,0,0,1-5.45,13.73c-1.24,1.87-1.94,4.41-2.76,6.54s-3.83,5.86-3.83,7.9c-1.58.63-3.35,3.91-5,5-1.14,0-1.88.89-3.12.89s-3.67-1.3-4.91-.89c-1.76-1.76-5.89-1.14-8-2.72s-3.42-2.84-4.22-5.42a43.32,43.32,0,0,1-2.4-14c-.1-4.25.62-8.56.62-12.74a50.22,50.22,0,0,1,1-6.39c.61-2.19.52-6.15,1.81-8,0-2.77,1.73-5.39,2.05-8.2,1-1.23.28-2.6,2-3,.67-.15,2.33.52,2.33-.65,1.18.59,1,.73,1.69,0,0,0,3.62,3.63,3.83,4.27.94,1.91-.17,5.8-.17,8.2,0,5.21-1.42,10.58-1.24,15.62.22,6.06.08,11.28.08,17.36a11.28,11.28,0,0,0,1.71,6.12c.28.38,3.34-6.37,3.63-7.55Zm35.12-70.67c0-3.09.64-6.22.92-9.48.23-2.67,1.41-10,4.69-9.33.84-1.94,5.55,2.06,5.7,3.3.86,1.92.92,5.38,1.06,7.37a14.58,14.58,0,0,0,1.89,5.19c1.32,2,.79,5.18.9,7.22,0,.8-.53,4.06.2,4.28a20.46,20.46,0,0,0,5.4.54c.51,0,9.89,1.09,9.89,1.6,2.81,0,6.66.09,9.36,1,1.21,0,8,4,5.26,4.9a8.85,8.85,0,0,0,1.51.72c0,.26-1,.27-1.15.27-.47.91.56.58.88,1.06-.62,0-1.32,2.66-2,1.7-.35.35,3.43,2.57-.71,3.38,0,1.7-4.1,1.2-5.22.85A31.28,31.28,0,0,0,240,239c-.86-.68-4.11-1-5.17-1-1.91,0-10.28-1.84-10.83.65A73.46,73.46,0,0,0,222,251.64c-.15,4.06.44,10.12-.73,14a20.66,20.66,0,0,0-.37,6.8c.08,1.65.64,6.18-.23,7.45a78.3,78.3,0,0,0,1.23,14.09c.48,2.57,1,7.48-1.14,7.48,0,0-1,1.26-1,1.69-.21,0-1.13-.36-1.34-.36-.57-.58-1.05-1-1.51-1a12,12,0,0,0-.27,1.25,1.86,1.86,0,0,1-.62-.53,3.32,3.32,0,0,0,0,.89c-.5,0-.86-.72-1.07-1.07-.92.92-4.66-2-5.85-2.93-.79-.62-1.6.65-2.79-.64,0-.61-.94-1.76-1-2.84-.06-2-.49-4.19-.73-6.07-1.15-4.06,1.07-43.58,1.78-43.58.06-1.58.05-3.4.1-5.08a14,14,0,0,0,.35-1.6c-.69-.52.22-1.34-.89-1.34a9.41,9.41,0,0,1-2.55.26c-4.06.18-10.9-1.05-14.38.72-2.78,2.22-13.36-.49-16.11-1.72a41.53,41.53,0,0,1-6.32-3.38c-1.35-.9-4.49-5.15-1.1-5.15.11-.89.59-1.18,1.43-.89a.93.93,0,0,0,1.16.36c2.21-1,1.24.34,1.24-1.43a31,31,0,0,1,6,.92c2.2.6,5.26-.07,7.52-.3,1.46,0,15-2.14,15-2,1.57.53,5.66-.78,7.32-.95,3.87-.39,3.33-1.06,3.54-5,.07-1.46.61-3.4-.35-4.42Zm21.47,39.12c0-1.33,6-9.8,7-8.82,2.39-4,9.71-1.25,12.56-1.25,1.69,1.71,6.69.44,8.65,2.41,2.49,0,6.33,3.44,7.48,5,0,1.15-.5.47.45,1.42-.24.18-1.42-.3-1.34.27a6.18,6.18,0,0,1,.36.53c-1.18,0-1.52.72-2.14,1.34-2.07.52-5.23-1.06-7.17-1.64a19.57,19.57,0,0,0-6.2-.23c-.57.38-3.3,1.76-3.92,1.6-4.22,2.27-7.4,7.52-3.21,11.85,2.13,1.09,4.31,3.21,6.86,3.21,2,0,4.77,1.3,6.62,2.11a28.32,28.32,0,0,1,6.46,4.56c.82.67,2.53,1.41,3,2.52,1.14,0,1.82,3.14,2.31,3.65,3.06,2-5,10.64-6.31,12.21-2.54,3.12-7,5.88-11.07,5.88,0,.66-8.86-.89-9.71-.89-2.83-.62-9.76-1.92-11.5-4.28-.3.31-5.35-1.8-5.35-2.41-.61-.87.27-2.54.54-3.65.9,0,5-1.78,5.08-2.23.92-.23.73.61,1.78.27-.28-.7-1.16-.8-1.16-1.69,1.59.68,1.71,1.36,3.49,1.72s3.63.44,5.34.86c2.35,1.17,7.35-1.25,9.89-1.25,0-1.24,5.8-2.45,5.79-4.72,0-1.69-3.85-3.92-5.26-3.92a17.37,17.37,0,0,0-4.27-1.34c-.19-.54-2.67-1.6-3.3-1.6-.19-.4-5.94-3.54-5.88-3.57-.48-1.39-3-3.42-4-4.71a16.47,16.47,0,0,1-2.09-4.4c-.62-1.66-1.07-7.41.32-8.8,0-.09-.09.09,0,0Zm54.81,30.3c0-.31,4.32,1.35,4.19,1.34a13.37,13.37,0,0,1-1.65,4.3c-.65,1-1,3.25-1.64,4.52-.74,1.48-1.64,3.75-2.68,4.82-1.49.48-3.58,2.81-4.28,4.18-.89-.3-.38-2.34-1.54-1.8-.91.41-.88.94-1.77,0A29.84,29.84,0,0,0,272,299c-.28-1.09-.68-1.35-.89-2.4.28-.29.81-1.47.17-1.78-.35-.74-1.23-2.38-1.09-3.57.18-1.4,1.42-3.49,3.23-2.59.32-1.22,1-.94,1.79-.44,1.31,0,1.22-.55,2.21-1.55s5.43-2.88,7.32-1.93Zm45-40.19c1.78.36.93,1.25,2.94,1.25a1.16,1.16,0,0,0-.18.35q-.27-.36-.54,0c5,1.7,13.56,3.14,17.57,8.67a14.63,14.63,0,0,1,2.39,4.38c.27.81,1.32,5.36.37,5.85.71,1.68.37,9.53-1.43,10.24.75,1.51-5.88,7.93-5.88,7.93,0,1.91-8.84,7-10.16,7-1.13,1.14-5.72.8-7.13.8-3.1,0-4.8-1.79-7.31-3-4.72-2.36-5.84-6.14-8.11-10.6-.65,0-3.82,3.39-4.15,3.91-.72,1.19-7.22,5-8.77,3.85a.51.51,0,0,1,.44-.18,13,13,0,0,1-4.72-.18c-2.58-.87-5.54-3.12-8.38-3.75,0-.38-4.89-3.44-5.28-4.23-1-2-2.74-3.14-2.74-5.57-1.46-1.52-.84-8.66.18-10.69,0-2.22,1.59-5.37,2.5-7.13,0-1.83,3.18-5.62,4.36-6.77,0-1.13,2.73-3.62,3.48-4.46,1.3-1.47,3.57-4.8,5.81-4.67.86.06,1.43-.23,2.48-.23,1.45.17,2.65,1.34,4.18,1.34A21.83,21.83,0,0,0,308,241.7c.52.79,2.71,3.84,1.21,4.72-1.1.63-3.28.87-5,1.66s-4.44,2.36-6.46,2.8c0,2.53-6.06,4.93-6.06,7.67-1.81,0-2.4,8.88-2.45,9.62-.07,1.27-.05,2.33-.05,3.57-.24,2,3.91,3.08,5.09,3.92.85,0,7.3,2.8,7.3-.71,1.9-.64,4.36-4.3,5.56-5.86,2-2.56,4.49-4.86,6.11-7.6a8.3,8.3,0,0,0,1.07-6.33c1.27-3.17,3-3.75,6.25-3.62,1.61.06,2.72,1.31,3.65,1.31,0-1.49-.53-4.48,0-5.53.77-.26.8-.72.8-1.43.52.13,1.78-.59,1.78-1.16.5-.1.6.9,1,.9s1.56-.7,1.43-.45a5.25,5.25,0,0,1,.53-.62Zm-24,39.3c-.09-.18.09-.36.26-.18C306,283.77,305.82,283.86,305.73,283.86Zm32-16.4c0-1.85-2.47-10.08-4.63-9.53,1.49,4.11-5.62,1.44-5.62,4.45-.93.31-.8,2.92-1.33,3.48,0,.09-.49-1.11-.18-.8-1.52-.39-1.85,8.34-2,9.18,0,3.74.19,7.64,5.38,6.8,3.17-.51,6-5.32,6.79-8.05.16-.52,1-1.21,1.27-2.26s-.35-2.08.37-3.27c0-.09-.27.45,0,0Zm43-36.09c1.26,1.26,5,3.88,4.27,6.86a6.78,6.78,0,0,1,.9,4.37c0,1.45-.37,5.43.44,6.5.75,0,4-5.3,4.55-6.09,1.11-1.73,2.57-4.48,4.27-5.76,3.47-2.29,5.35-4.28,9.9-4.28a10,10,0,0,0,3,.45,13.53,13.53,0,0,0,2.13,1.69c.39,1.5,2.59,3,2.59,4.63.81.28,2.05,4.15,2.05,4.91,0,3.25,1.21,6.84.82,10.14a65.88,65.88,0,0,0,.25,17c0,1.43,1.19,5.3,2.49,6,0,.92,1.45,2.6-.26,3a16.17,16.17,0,0,1-.08,2.52c-.74,1-4.9,2.68-5.94,2.16a16,16,0,0,1-3.88-2.45c-.48-1-2.64-2.44-1.87-4,.06-.12-.44-3.13-.44-3.12,0-2.13-1.08-5-1.25-7.48-.23-2.94-.44-5.68-.44-8.6,0-2.06.79-7.81-.54-9.41-1.77,0-2.86,6.91-4.81,7.31,0,2.5-2.76,4.69-2.76,7.13-.87.29-2.45,5.68-2.73,6.33-1.22,2.86-4.13,4.43-6.54,5.88a7.34,7.34,0,0,0-2.39,1.32c-1.74,1.39-2.11-.25-3.67-.25-3.06-1.16-4.42-2-5.44-5.44,0-2.84-1.33-5.78-1.33-8.64,0-.92.39-10-.63-10.78-1.26,1.26-4.57,11.62-3.64,12.23-.1-.07-.05,12.9-.3,13.2-1,1.18-.47,5.49-.69,7.09,0,0-3.21,3.24-3.21,2.86-1,.12-3.56,1.18-4.1.09-.82,0-1.67-.36-2.41-.36a7.28,7.28,0,0,1-3.47-1.87c-.52-.52-1.73-4.19-.27-4.19.28,0,3-15.73,2.15-16.27-.45-.29.6-5.12.7-6,.47-2.92,1.65-6.53,1.65-9.4s2-5.94,2.45-9c-.5,0,4.77-9,4.9-9.53.76,0,2.9-1.76,3.66-2.14.4-.14,3.65,0,3.65-.5,0-.94,5.68.79,6.24,1.92.17.18-.09-.18,0,0Z"/></g></g></svg>